<?xml version="1.0" encoding="UTF-8"?><svg xmlns="http://www.w3.org/2000/svg" viewBox="0 0 4000 1000"><g id="a"><rect width="4000" height="1000" style="fill:#ff001f;"/></g><g id="b"><path d="m494.56,746.04V220.26h153.52v189.06h183.98v-189.06h154.69v525.78h-154.69v-200.78h-183.98v200.78h-153.52Z" style="fill:#fff;"/><path d="m1050.66,746.04V220.26h372.66v126.56h-219.14v73.44h193.75v121.88h-193.75v77.34h219.14v126.56h-372.66Z" style="fill:#fff;"/><path d="m1475.5,746.04V220.26h153.52v399.22h195.31v126.56h-348.83Z" style="fill:#fff;"/><path d="m1913.62,746.04l-167.19-525.78h164.45l95.31,363.28,96.88-363.28h166.41l-173.83,525.78h-182.03Z" style="fill:#fff;"/><path d="m2273.23,746.04V220.26h372.66v126.56h-219.14v73.44h193.75v121.88h-193.75v77.34h219.14v126.56h-372.66Z" style="fill:#fff;"/><path d="m2782.06,746.04v-399.22h-130.47v-126.56h413.67v126.56h-129.69v399.22h-153.52Z" style="fill:#fff;"/><path d="m3198.7,746.04v-182.42l-175.78-343.36h171.88l82.42,200,83.2-200h171.88l-175,343.36v182.42h-158.59Z" style="fill:#fff;"/></g><g id="c"><rect x="613.22" y="397.56" width="67.56" height="167.11" style="fill:#ff001f;"/></g></svg>